<svg xmlns="http://www.w3.org/2000/svg" xmlns:xlink="http://www.w3.org/1999/xlink" width="600" zoomAndPan="magnify" viewBox="0 0 450 89.999999" height="120" preserveAspectRatio="xMidYMid meet" version="1.0"><defs><g/></defs><g fill="#3742fa" fill-opacity="1"><g transform="translate(121.104686, 59.249999)"><g><path d="M 28.3125 0 L 28.3125 -11.4375 C 28.3125 -12.851562 28.113281 -13.914062 27.71875 -14.625 C 27.332031 -15.34375 26.722656 -15.703125 25.890625 -15.703125 C 24.773438 -15.703125 23.957031 -15.222656 23.4375 -14.265625 C 22.914062 -13.316406 22.65625 -11.828125 22.65625 -9.796875 L 22.65625 0 L 15.375 0 L 15.375 -11.4375 C 15.375 -12.851562 15.1875 -13.914062 14.8125 -14.625 C 14.445312 -15.34375 13.851562 -15.703125 13.03125 -15.703125 C 11.882812 -15.703125 11.050781 -15.191406 10.53125 -14.171875 C 10.019531 -13.160156 9.765625 -11.503906 9.765625 -9.203125 L 9.765625 0 L 2.5 0 L 2.5 -21.015625 L 7.984375 -21.015625 L 8.890625 -18.421875 L 9.3125 -18.421875 C 9.875 -19.390625 10.679688 -20.125 11.734375 -20.625 C 12.796875 -21.132812 14 -21.390625 15.34375 -21.390625 C 18.375 -21.390625 20.503906 -20.46875 21.734375 -18.625 L 22.296875 -18.625 C 22.890625 -19.488281 23.710938 -20.164062 24.765625 -20.65625 C 25.828125 -21.144531 27 -21.390625 28.28125 -21.390625 C 30.757812 -21.390625 32.59375 -20.753906 33.78125 -19.484375 C 34.96875 -18.210938 35.5625 -16.273438 35.5625 -13.671875 L 35.5625 0 Z M 28.3125 0 "/></g></g></g><g fill="#3742fa" fill-opacity="1"><g transform="translate(159.096872, 59.249999)"><g><path d="M 22.578125 -10.5625 C 22.578125 -7.125 21.648438 -4.441406 19.796875 -2.515625 C 17.953125 -0.585938 15.367188 0.375 12.046875 0.375 C 8.847656 0.375 6.304688 -0.609375 4.421875 -2.578125 C 2.535156 -4.546875 1.59375 -7.207031 1.59375 -10.5625 C 1.59375 -13.988281 2.515625 -16.648438 4.359375 -18.546875 C 6.210938 -20.441406 8.8125 -21.390625 12.15625 -21.390625 C 14.21875 -21.390625 16.039062 -20.953125 17.625 -20.078125 C 19.207031 -19.203125 20.425781 -17.941406 21.28125 -16.296875 C 22.144531 -14.660156 22.578125 -12.75 22.578125 -10.5625 Z M 8.96875 -10.5625 C 8.96875 -8.75 9.207031 -7.367188 9.6875 -6.421875 C 10.164062 -5.484375 10.972656 -5.015625 12.109375 -5.015625 C 13.242188 -5.015625 14.039062 -5.484375 14.5 -6.421875 C 14.96875 -7.367188 15.203125 -8.75 15.203125 -10.5625 C 15.203125 -12.351562 14.960938 -13.707031 14.484375 -14.625 C 14.015625 -15.539062 13.210938 -16 12.078125 -16 C 10.960938 -16 10.164062 -15.539062 9.6875 -14.625 C 9.207031 -13.71875 8.96875 -12.363281 8.96875 -10.5625 Z M 8.96875 -10.5625 "/></g></g></g><g fill="#3742fa" fill-opacity="1"><g transform="translate(183.30576, 59.249999)"><g><path d="M 15.765625 0 L 15.765625 -11.46875 C 15.765625 -12.863281 15.5625 -13.914062 15.15625 -14.625 C 14.757812 -15.34375 14.117188 -15.703125 13.234375 -15.703125 C 12.003906 -15.703125 11.117188 -15.210938 10.578125 -14.234375 C 10.035156 -13.253906 9.765625 -11.578125 9.765625 -9.203125 L 9.765625 0 L 2.5 0 L 2.5 -21.015625 L 7.984375 -21.015625 L 8.890625 -18.421875 L 9.3125 -18.421875 C 9.9375 -19.410156 10.796875 -20.148438 11.890625 -20.640625 C 12.984375 -21.140625 14.238281 -21.390625 15.65625 -21.390625 C 17.988281 -21.390625 19.800781 -20.710938 21.09375 -19.359375 C 22.382812 -18.015625 23.03125 -16.117188 23.03125 -13.671875 L 23.03125 0 Z M 15.765625 0 "/></g></g></g><g fill="#3742fa" fill-opacity="1"><g transform="translate(208.757556, 59.249999)"><g><path d="M 12.65625 0.375 C 9.15625 0.375 6.4375 -0.554688 4.5 -2.421875 C 2.5625 -4.285156 1.59375 -6.9375 1.59375 -10.375 C 1.59375 -13.925781 2.488281 -16.648438 4.28125 -18.546875 C 6.082031 -20.441406 8.644531 -21.390625 11.96875 -21.390625 C 15.132812 -21.390625 17.578125 -20.5625 19.296875 -18.90625 C 21.023438 -17.257812 21.890625 -14.882812 21.890625 -11.78125 L 21.890625 -8.546875 L 8.921875 -8.546875 C 8.972656 -7.378906 9.40625 -6.457031 10.21875 -5.78125 C 11.03125 -5.113281 12.132812 -4.78125 13.53125 -4.78125 C 14.800781 -4.78125 15.96875 -4.898438 17.03125 -5.140625 C 18.101562 -5.390625 19.265625 -5.804688 20.515625 -6.390625 L 20.515625 -1.171875 C 19.378906 -0.585938 18.203125 -0.1875 16.984375 0.03125 C 15.773438 0.257812 14.332031 0.375 12.65625 0.375 Z M 12.234375 -16.453125 C 11.378906 -16.453125 10.660156 -16.179688 10.078125 -15.640625 C 9.503906 -15.109375 9.171875 -14.269531 9.078125 -13.125 L 15.3125 -13.125 C 15.28125 -14.132812 14.988281 -14.941406 14.4375 -15.546875 C 13.894531 -16.148438 13.160156 -16.453125 12.234375 -16.453125 Z M 12.234375 -16.453125 "/></g></g></g><g fill="#3742fa" fill-opacity="1"><g transform="translate(232.24296, 59.249999)"><g><path d="M -0.03125 -21.015625 L 7.609375 -21.015625 L 11.171875 -8.96875 C 11.347656 -8.332031 11.460938 -7.570312 11.515625 -6.6875 L 11.671875 -6.6875 C 11.765625 -7.53125 11.910156 -8.273438 12.109375 -8.921875 L 15.765625 -21.015625 L 23.171875 -21.015625 L 14.859375 1.34375 C 13.796875 4.1875 12.488281 6.191406 10.9375 7.359375 C 9.382812 8.535156 7.359375 9.125 4.859375 9.125 C 3.898438 9.125 2.910156 9.019531 1.890625 8.8125 L 1.890625 3.125 C 2.546875 3.269531 3.296875 3.34375 4.140625 3.34375 C 4.785156 3.34375 5.347656 3.21875 5.828125 2.96875 C 6.304688 2.71875 6.722656 2.367188 7.078125 1.921875 C 7.441406 1.472656 7.828125 0.734375 8.234375 -0.296875 Z M -0.03125 -21.015625 "/></g></g></g><g fill="#3742fa" fill-opacity="1"><g transform="translate(255.412999, 59.249999)"><g><path d="M 0.796875 -7.296875 L 0.796875 -13.078125 L 11.28125 -13.078125 L 11.28125 -7.296875 Z M 0.796875 -7.296875 "/></g></g></g><g fill="#3742fa" fill-opacity="1"><g transform="translate(267.489616, 59.249999)"><g><path d="M 15.34375 -15.59375 L 10.875 -15.59375 L 10.875 0 L 3.625 0 L 3.625 -15.59375 L 0.828125 -15.59375 L 0.828125 -19.15625 L 3.765625 -20.9375 L 3.765625 -21.28125 C 3.765625 -24.050781 4.328125 -26.039062 5.453125 -27.25 C 6.585938 -28.46875 8.40625 -29.078125 10.90625 -29.078125 C 11.875 -29.078125 12.785156 -29 13.640625 -28.84375 C 14.503906 -28.695312 15.503906 -28.441406 16.640625 -28.078125 L 15.078125 -23.375 C 14.191406 -23.625 13.320312 -23.75 12.46875 -23.75 C 11.914062 -23.75 11.507812 -23.578125 11.25 -23.234375 C 11 -22.898438 10.875 -22.347656 10.875 -21.578125 L 10.875 -21.015625 L 15.34375 -21.015625 Z M 15.34375 -15.59375 "/></g></g></g><g fill="#3742fa" fill-opacity="1"><g transform="translate(283.183654, 59.249999)"><g><path d="M 15.765625 0 L 15.765625 -11.46875 C 15.765625 -12.863281 15.5625 -13.914062 15.15625 -14.625 C 14.757812 -15.34375 14.117188 -15.703125 13.234375 -15.703125 C 12.003906 -15.703125 11.117188 -15.210938 10.578125 -14.234375 C 10.035156 -13.253906 9.765625 -11.578125 9.765625 -9.203125 L 9.765625 0 L 2.5 0 L 2.5 -21.015625 L 7.984375 -21.015625 L 8.890625 -18.421875 L 9.3125 -18.421875 C 9.9375 -19.410156 10.796875 -20.148438 11.890625 -20.640625 C 12.984375 -21.140625 14.238281 -21.390625 15.65625 -21.390625 C 17.988281 -21.390625 19.800781 -20.710938 21.09375 -19.359375 C 22.382812 -18.015625 23.03125 -16.117188 23.03125 -13.671875 L 23.03125 0 Z M 15.765625 0 "/></g></g></g><g fill="#3742fa" fill-opacity="1"><g transform="translate(308.63545, 59.249999)"><g><path d="M 18.734375 -6.453125 C 18.734375 -4.203125 17.96875 -2.5 16.4375 -1.34375 C 14.90625 -0.195312 12.703125 0.375 9.828125 0.375 C 8.273438 0.375 6.921875 0.289062 5.765625 0.125 C 4.617188 -0.0390625 3.445312 -0.347656 2.25 -0.796875 L 2.25 -6.609375 C 3.375 -6.109375 4.601562 -5.695312 5.9375 -5.375 C 7.28125 -5.0625 8.476562 -4.90625 9.53125 -4.90625 C 11.101562 -4.90625 11.890625 -5.257812 11.890625 -5.96875 C 11.890625 -6.34375 11.671875 -6.675781 11.234375 -6.96875 C 10.796875 -7.257812 9.519531 -7.828125 7.40625 -8.671875 C 5.476562 -9.460938 4.128906 -10.359375 3.359375 -11.359375 C 2.585938 -12.367188 2.203125 -13.648438 2.203125 -15.203125 C 2.203125 -17.148438 2.957031 -18.664062 4.46875 -19.75 C 5.976562 -20.84375 8.113281 -21.390625 10.875 -21.390625 C 12.257812 -21.390625 13.5625 -21.238281 14.78125 -20.9375 C 16 -20.632812 17.265625 -20.191406 18.578125 -19.609375 L 16.609375 -14.9375 C 15.640625 -15.375 14.617188 -15.742188 13.546875 -16.046875 C 12.472656 -16.347656 11.59375 -16.5 10.90625 -16.5 C 9.71875 -16.5 9.125 -16.207031 9.125 -15.625 C 9.125 -15.257812 9.332031 -14.953125 9.75 -14.703125 C 10.164062 -14.453125 11.363281 -13.9375 13.34375 -13.15625 C 14.8125 -12.550781 15.90625 -11.957031 16.625 -11.375 C 17.351562 -10.789062 17.882812 -10.101562 18.21875 -9.3125 C 18.5625 -8.53125 18.734375 -7.578125 18.734375 -6.453125 Z M 18.734375 -6.453125 "/></g></g></g><g fill="#3742fa" fill-opacity="1"><g transform="translate(77.597358, 59.249999)"><g><path d="M 19.21875 -8.328125 C 19.21875 -6.648438 18.585938 -5.265625 17.328125 -4.171875 C 16.066406 -3.078125 14.304688 -2.382812 12.046875 -2.09375 L 12.046875 2.203125 L 9.65625 2.203125 L 9.65625 -1.9375 C 8.269531 -1.9375 6.925781 -2.039062 5.625 -2.25 C 4.320312 -2.46875 3.257812 -2.769531 2.4375 -3.15625 L 2.4375 -6.046875 C 3.457031 -5.585938 4.640625 -5.210938 5.984375 -4.921875 C 7.328125 -4.628906 8.550781 -4.484375 9.65625 -4.484375 L 9.65625 -12.65625 C 7.113281 -13.457031 5.332031 -14.390625 4.3125 -15.453125 C 3.289062 -16.515625 2.78125 -17.890625 2.78125 -19.578125 C 2.78125 -21.191406 3.40625 -22.519531 4.65625 -23.5625 C 5.914062 -24.601562 7.582031 -25.234375 9.65625 -25.453125 L 9.65625 -28.828125 L 12.046875 -28.828125 L 12.046875 -25.5 C 14.316406 -25.4375 16.507812 -24.976562 18.625 -24.125 L 17.671875 -21.6875 C 15.828125 -22.414062 13.953125 -22.847656 12.046875 -22.984375 L 12.046875 -14.9375 C 13.984375 -14.320312 15.429688 -13.71875 16.390625 -13.125 C 17.359375 -12.539062 18.070312 -11.867188 18.53125 -11.109375 C 18.988281 -10.347656 19.21875 -9.421875 19.21875 -8.328125 Z M 16.0625 -8.09375 C 16.0625 -8.976562 15.785156 -9.695312 15.234375 -10.25 C 14.691406 -10.800781 13.628906 -11.347656 12.046875 -11.890625 L 12.046875 -4.671875 C 14.722656 -5.046875 16.0625 -6.1875 16.0625 -8.09375 Z M 5.921875 -19.609375 C 5.921875 -18.671875 6.195312 -17.914062 6.75 -17.34375 C 7.3125 -16.78125 8.28125 -16.242188 9.65625 -15.734375 L 9.65625 -22.921875 C 8.425781 -22.722656 7.492188 -22.332031 6.859375 -21.75 C 6.234375 -21.175781 5.921875 -20.460938 5.921875 -19.609375 Z M 5.921875 -19.609375 "/></g></g></g></svg>